# xmcd
#
# Track frame offsets: 
#        157
#        19125
#        34525
#        56692
#        70100
#        85575
#        100645
#        119512
#        140852
#        156915
#        174907
#        188105
#        203685
#        218040
#        238675
#        256542
#        270902
#        287900
#        304667
#
# Disc length: 4262 seconds
#
# Revision: 3
# Processed by: cddbd v1.5.2PL0 Copyright (c) Steve Scherf et al.
# Submitted via: ExactAudioCopyFreeDBPlugin 1.0
#
DISCID=0010a413
DTITLE=Clifton Chenier - Clifton Sings The Blues
DYEAR=1992
DGENRE=Blues
TTITLE0=Ain't No Need of Cryin'
TTITLE1=Rosemary
TTITLE2=Brown Skinned Woman
TTITLE3=Done Got Over
TTITLE4=Gone a la Maison
TTITLE5=Be My Chauffeur
TTITLE6=My Little Angel
TTITLE7=Paper in My Shoe
TTITLE8=Blues After Hours
TTITLE9=Trouble in Mind
TTITLE10=In The Mood
TTITLE11=Worried Life Blues
TTITLE12=Grand Prix
TTITLE13=Hungry Man Blues
TTITLE14=Falksy Girl
TTITLE15=Easy, Easy Baby
TTITLE16=Tante Na Na
TTITLE17=Do Right Sometime
TTITLE18=Highway Blues
EXTD=
EXTT0=
EXTT1=
EXTT2=
EXTT3=
EXTT4=
EXTT5=
EXTT6=
EXTT7=
EXTT8=
EXTT9=
EXTT10=
EXTT11=
EXTT12=
EXTT13=
EXTT14=
EXTT15=
EXTT16=
EXTT17=
EXTT18=
PLAYORDER=
